; prerendered frequencies for musical notes
; http://www.devrs.com/gb/files/sndtab.html

SECTION "Musical notes", ROM0, ALIGN[8]

MusicalNotes::

DB $00, $2C ; C_3
DB $00, $9C ; C#3
DB $01, $06 ; D_3
DB $01, $6B ; D#3
DB $01, $C9 ; E_3
DB $02, $23 ; F_3
DB $02, $77 ; F#3
DB $02, $C6 ; G_3
DB $03, $12 ; G#3
DB $03, $56 ; A_3
DB $03, $9B ; A#3
DB $04, $DA ; B_3
DB $04, $16 ; C_4
DB $04, $4E ; C#4
DB $04, $83 ; D_4
DB $04, $B5 ; D#4
DB $04, $E5 ; E_4
DB $05, $11 ; F_4
DB $05, $3B ; F#4
DB $05, $63 ; G_4
DB $05, $89 ; G#4
DB $05, $AC ; A_4
DB $05, $CE ; A#4
DB $05, $ED ; B_4
DB $06, $0A ; C_5
DB $06, $27 ; C#5
DB $06, $42 ; D_5
DB $06, $5B ; D#5
DB $06, $72 ; E_5
DB $06, $89 ; F_5
DB $06, $9E ; F#5
DB $06, $B2 ; G_5
DB $06, $C4 ; G#5
DB $06, $D6 ; A_5
DB $06, $E7 ; A#5
DB $06, $F7 ; B_5
DB $07, $06 ; C_6
DB $07, $14 ; C#6
DB $07, $21 ; D_6
DB $07, $2D ; D#6
DB $07, $39 ; E_6
DB $07, $44 ; F_6
DB $07, $4F ; F#6
DB $07, $59 ; G_6
DB $07, $62 ; G#6
DB $07, $6B ; A_6
DB $07, $73 ; A#6
DB $07, $7B ; B_6
DB $07, $83 ; C_7








